<?xml version="1.0" encoding="UTF-8"?>
<!DOCTYPE svg PUBLIC "-//W3C//DTD SVG 1.1//EN" "http://www.w3.org/Graphics/SVG/1.1/DTD/svg11.dtd">
<!-- Creator: CorelDRAW (Versión de evaluación) -->
<svg xmlns="http://www.w3.org/2000/svg" xml:space="preserve" width="13.0055mm" height="19.0387mm" version="1.1" style="shape-rendering:geometricPrecision; text-rendering:geometricPrecision; image-rendering:optimizeQuality; fill-rule:evenodd; clip-rule:evenodd"
viewBox="0 0 218.87 320.41"
 xmlns:xlink="http://www.w3.org/1999/xlink"
 xmlns:xodm="http://www.corel.com/coreldraw/odm/2003">
 <defs>
  <style type="text/css">
   <![CDATA[
    .fil0 {fill:white;fill-rule:nonzero}
   ]]>
  </style>
 </defs>
 <g id="Capa_x0020_1">
  <metadata id="CorelCorpID_0Corel-Layer"/>
  <path class="fil0" d="M4.92 5.43l139.5 0 0 65.76 -70.96 0 -3.57 0 1.64 3.27 31.49 62.97c-4.04,1.91 -8.27,3.63 -12.63,4.92 -5.06,1.5 -10.32,2.43 -15.71,2.43 -19.09,0 -36.43,-7.6 -49.05,-19.58 -12.77,-12.13 -20.7,-28.74 -20.7,-46.47l0 -73.31zm143.84 70.25l64.96 0 -68.35 136.69 -36.44 -72.88 -1.03 -2.05 -30.88 -61.76 69.56 0 2.17 0zm68.54 143.12l1.51 0 0 -1.52 0 -215.76 0 -1.52 -1.51 0 -215.76 0 -1.51 0 0 1.52 0 215.76 0 1.52 1.51 0 215.76 0zm-44.98 72.68c0.16,-1.38 0.59,-2.44 1.31,-3.18 0.72,-0.74 1.7,-1.11 2.96,-1.11 1.07,0 1.95,0.3 2.66,0.91 0.49,0.41 0.88,0.9 1.15,1.46 0.28,0.56 0.41,1.2 0.41,1.92l-8.49 0zm14.13 2.52c0,-4.19 -1.12,-7.22 -3.37,-9.11 -1.7,-1.41 -3.84,-2.1 -6.42,-2.1 -3.91,0 -6.72,1.41 -8.42,4.24 -1.04,1.78 -1.56,3.8 -1.56,6.05 0,3.95 0.99,6.86 2.97,8.73 1.72,1.6 4.19,2.41 7.4,2.41 2.03,0 3.84,-0.48 5.4,-1.42 1.85,-1.15 3.11,-2.84 3.76,-5.09l-5.63 0c-0.24,0.72 -0.69,1.27 -1.37,1.64 -0.68,0.39 -1.4,0.58 -2.15,0.58 -1.51,0 -2.67,-0.39 -3.46,-1.16 -0.8,-0.78 -1.28,-2.05 -1.43,-3.81l14.28 0 0 -0.96zm-28.85 9.68l5.48 0 0 -27.47 -5.48 0 0 27.47zm-5.4 -27.47l-5.48 0 0 27.47 5.48 0 0 -27.47zm-22.23 19.48c0.47,-0.36 1.29,-0.62 2.47,-0.77l2.62 -0.54c0.61,-0.23 1.02,-0.43 1.25,-0.61l0 2.6c0,1.2 -0.48,2.17 -1.45,2.91 -0.96,0.74 -2.11,1.11 -3.44,1.11 -0.62,0 -1.19,-0.18 -1.68,-0.53 -0.58,-0.46 -0.86,-1.1 -0.86,-1.91 0,-1.02 0.36,-1.78 1.09,-2.26zm-4.58 7.15c1.17,0.92 2.62,1.38 4.35,1.38 1.67,0 3.11,-0.33 4.3,-1 0.73,-0.36 1.54,-1.01 2.43,-1.95 0.13,0.91 0.3,1.72 0.5,2.4l5.91 0 0 -0.8c-0.42,-0.15 -0.72,-0.42 -0.9,-0.78 -0.18,-0.37 -0.28,-0.77 -0.29,-1.2 -0.01,-0.43 -0.02,-0.83 -0.02,-1.19l0 -11.02c0,-2.24 -1.01,-3.86 -3.05,-4.86 -1.46,-0.7 -3.21,-1.03 -5.24,-1.03 -2.58,0 -4.6,0.4 -6.03,1.22 -1.94,1.14 -3.03,3.11 -3.29,5.89l5.28 0c0.11,-0.87 0.34,-1.49 0.71,-1.88 0.57,-0.63 1.46,-0.96 2.66,-0.96 1.04,0 1.83,0.12 2.34,0.35 0.84,0.39 1.25,1.06 1.25,2.03 0,0.53 -0.21,0.94 -0.62,1.22 -0.26,0.18 -0.7,0.31 -1.29,0.38l-4.93 0.73c-1.88,0.31 -3.36,0.99 -4.44,2.05 -1.09,1.06 -1.63,2.54 -1.63,4.46 0,1.97 0.66,3.48 1.99,4.55zm-11.27 0.84l9.55 -27.47 -6.1 0 -6.19 20.81 -6.02 -20.81 -6.31 0 9.47 27.47 5.6 0zm-29.39 -27.47l-5.48 0 0 27.47 5.48 0 0 -27.47zm-23.4 15.27c0.15,-1.38 0.59,-2.44 1.31,-3.18 0.71,-0.74 1.7,-1.11 2.95,-1.11 1.07,0 1.96,0.3 2.67,0.91 0.49,0.41 0.88,0.9 1.15,1.46 0.27,0.56 0.41,1.2 0.41,1.92l-8.49 0zm14.12 2.52c0,-4.19 -1.12,-7.22 -3.36,-9.11 -1.7,-1.41 -3.83,-2.1 -6.42,-2.1 -3.91,0 -6.71,1.41 -8.41,4.24 -1.05,1.78 -1.57,3.8 -1.57,6.05 0,3.95 0.99,6.86 2.98,8.73 1.72,1.6 4.19,2.41 7.4,2.41 2.04,0 3.84,-0.48 5.4,-1.42 1.85,-1.15 3.11,-2.84 3.76,-5.09l-5.63 0c-0.24,0.72 -0.7,1.27 -1.37,1.64 -0.68,0.39 -1.4,0.58 -2.16,0.58 -1.51,0 -2.67,-0.39 -3.46,-1.16 -0.8,-0.78 -1.27,-2.05 -1.43,-3.81l14.28 0 0 -0.96zm-29.39 4.02c-0.89,1.19 -2.13,1.79 -3.72,1.79 -1.62,0 -2.81,-0.72 -3.6,-2.18 -0.6,-1.1 -0.9,-2.42 -0.9,-3.98 0,-1.79 0.34,-3.23 1.01,-4.33 0.81,-1.27 2.02,-1.91 3.65,-1.91 1.72,0 2.97,0.69 3.75,2.07 0.63,1.12 0.94,2.62 0.94,4.48 0,1.66 -0.38,3.01 -1.13,4.06zm6.38 5.66l0 -27.47 -5.48 0 -0.08 9.75c-0.63,-0.92 -1.31,-1.62 -2.04,-2.11 -1.07,-0.71 -2.4,-1.06 -3.99,-1.06 -2.48,0 -4.5,0.86 -6.07,2.6 -1.72,1.91 -2.58,4.54 -2.58,7.88 0,3.04 0.69,5.56 2.07,7.58 1.57,2.25 3.79,3.37 6.7,3.37 1.28,0 2.41,-0.23 3.4,-0.7 1.17,-0.53 2.08,-1.34 2.7,-2.4l0 2.56 5.36 0zm160.06 -51.19c-0.89,1.19 -2.13,1.8 -3.72,1.8 -1.62,0 -2.82,-0.73 -3.6,-2.19 -0.6,-1.1 -0.9,-2.42 -0.9,-3.98 0,-1.79 0.34,-3.23 1.02,-4.33 0.81,-1.27 2.02,-1.91 3.64,-1.91 1.72,0 2.98,0.68 3.76,2.06 0.63,1.12 0.94,2.62 0.94,4.48 0,1.66 -0.38,3.01 -1.13,4.06zm0.9 -21.81l-0.08 9.76c-0.63,-0.92 -1.31,-1.62 -2.04,-2.11 -1.07,-0.71 -2.4,-1.08 -4,-1.08 -2.48,0 -4.5,0.87 -6.07,2.61 -1.72,1.91 -2.58,4.54 -2.58,7.88 0,3.03 0.7,5.56 2.08,7.57 1.57,2.25 3.79,3.37 6.69,3.37 1.28,0 2.42,-0.23 3.41,-0.69 1.17,-0.53 2.07,-1.34 2.69,-2.41l0 2.56 5.37 0 0 -27.47 -5.48 0zm-30.37 23.65c-0.57,-0.46 -0.86,-1.1 -0.86,-1.91 0,-1.02 0.37,-1.78 1.1,-2.26 0.47,-0.36 1.29,-0.62 2.46,-0.77l2.62 -0.53c0.6,-0.23 1.02,-0.44 1.25,-0.62l0 2.6c0,1.2 -0.48,2.17 -1.44,2.91 -0.97,0.74 -2.11,1.11 -3.44,1.11 -0.63,0 -1.19,-0.18 -1.69,-0.53zm6.73 1.42c0.13,0.91 0.3,1.72 0.51,2.4l5.91 0 0 -0.8c-0.42,-0.15 -0.72,-0.42 -0.9,-0.78 -0.18,-0.37 -0.28,-0.77 -0.3,-1.2 -0.01,-0.43 -0.02,-0.83 -0.02,-1.19l0 -11.02c0,-2.24 -1.02,-3.86 -3.05,-4.86 -1.46,-0.7 -3.21,-1.04 -5.25,-1.04 -2.58,0 -4.59,0.41 -6.03,1.23 -1.93,1.14 -3.03,3.11 -3.29,5.89l5.28 0c0.11,-0.87 0.34,-1.49 0.71,-1.87 0.57,-0.64 1.46,-0.96 2.66,-0.96 1.05,0 1.83,0.11 2.35,0.35 0.84,0.38 1.25,1.06 1.25,2.02 0,0.54 -0.21,0.94 -0.62,1.22 -0.26,0.18 -0.69,0.31 -1.29,0.39l-4.93 0.72c-1.88,0.31 -3.36,0.99 -4.44,2.05 -1.09,1.06 -1.63,2.54 -1.63,4.46 0,1.97 0.66,3.48 2,4.55 1.17,0.92 2.62,1.38 4.34,1.38 1.67,0 3.11,-0.33 4.3,-1 0.73,-0.36 1.54,-1.01 2.43,-1.95zm-30.26 -3.64c-0.6,-1.1 -0.9,-2.42 -0.9,-3.98 0,-1.79 0.34,-3.23 1.02,-4.33 0.81,-1.27 2.02,-1.91 3.64,-1.91 1.72,0 2.97,0.68 3.76,2.06 0.62,1.12 0.94,2.62 0.94,4.48 0,1.66 -0.38,3.01 -1.13,4.06 -0.89,1.19 -2.13,1.8 -3.72,1.8 -1.62,0 -2.82,-0.73 -3.6,-2.19zm8.34 3.49l0 2.56 5.37 0 0 -27.47 -5.49 0 -0.08 9.76c-0.62,-0.92 -1.31,-1.62 -2.03,-2.11 -1.07,-0.71 -2.4,-1.08 -4,-1.08 -2.48,0 -4.5,0.87 -6.06,2.61 -1.73,1.91 -2.59,4.54 -2.59,7.88 0,3.03 0.7,5.56 2.08,7.57 1.56,2.25 3.79,3.37 6.69,3.37 1.28,0 2.41,-0.23 3.4,-0.69 1.17,-0.53 2.08,-1.34 2.7,-2.41zm-24.38 2.56l5.48 0 0 -20.36 -5.48 0 0 20.36zm5.48 -27.74l-5.48 0 0 4.97 5.48 0 0 -4.97zm-15.81 23.46c-0.62,0.51 -1.55,0.77 -2.78,0.77 -1.62,0 -2.79,-0.26 -3.52,-0.77 -0.68,-0.56 -1.02,-1.3 -1.02,-2.22l-5.63 0c0,2.5 1.08,4.36 3.25,5.59 1.72,0.97 3.98,1.46 6.77,1.46 2.21,0 4.15,-0.43 5.79,-1.3 2.22,-1.23 3.32,-3.12 3.32,-5.7 0,-2.15 -1.13,-3.74 -3.4,-4.78 -0.89,-0.41 -2.97,-0.97 -6.26,-1.69 -2.24,-0.53 -3.37,-1.17 -3.37,-1.91 0,-0.59 0.2,-1.03 0.59,-1.34 0.52,-0.43 1.45,-0.65 2.78,-0.65 1.36,0 2.32,0.28 2.9,0.84 0.37,0.36 0.63,0.97 0.78,1.83l5.36 0c0,-2.58 -1.06,-4.42 -3.17,-5.55 -1.54,-0.79 -3.6,-1.19 -6.18,-1.19 -2.95,0 -5.17,0.77 -6.66,2.3 -1.17,1.28 -1.76,2.78 -1.76,4.52 0,2.22 1.12,3.82 3.37,4.82 0.81,0.41 2.88,0.96 6.22,1.64 2.22,0.49 3.33,1.15 3.33,1.99 0,0.51 -0.24,0.96 -0.71,1.34zm-26.85 -16.07l0 20.35 5.48 0 0 -10.6c0,-1.42 0.31,-2.52 0.94,-3.29 0.81,-1.05 2.18,-1.57 4.11,-1.57l0.86 0 0.71 0.04 0 -5.47 -1.06 0c-1.18,0 -2.2,0.27 -3.08,0.81 -0.87,0.54 -1.78,1.62 -2.72,3.25l0 -3.52 -5.24 0zm-16.42 4.98c0.71,-0.74 1.7,-1.11 2.95,-1.11 1.07,0 1.96,0.3 2.66,0.91 0.5,0.41 0.88,0.9 1.16,1.46 0.27,0.56 0.41,1.19 0.41,1.91l-8.5 0c0.16,-1.38 0.6,-2.44 1.32,-3.18zm3.42 15.92c2.04,0 3.84,-0.48 5.4,-1.42 1.85,-1.14 3.11,-2.84 3.76,-5.09l-5.63 0c-0.24,0.71 -0.7,1.27 -1.37,1.64 -0.68,0.39 -1.4,0.58 -2.16,0.58 -1.51,0 -2.67,-0.39 -3.46,-1.17 -0.79,-0.78 -1.28,-2.04 -1.43,-3.81l14.28 0 0 -0.96c0,-4.19 -1.12,-7.22 -3.37,-9.11 -1.69,-1.4 -3.84,-2.11 -6.42,-2.11 -3.91,0 -6.71,1.42 -8.41,4.25 -1.04,1.79 -1.57,3.8 -1.57,6.04 0,3.95 0.99,6.86 2.97,8.73 1.72,1.61 4.19,2.41 7.4,2.41zm-17.61 -20.89l-4.5 15 -4.3 -15 -6.11 0 7.47 20.35 5.75 0 7.52 -20.35 -5.83 0zm-18.13 0l-5.48 0 0 20.36 5.48 0 0 -20.36zm0 -7.38l-5.48 0 0 4.97 5.48 0 0 -4.97zm-29.55 7.38l0 20.35 5.48 0 0 -11.67c0,-1.48 0.4,-2.64 1.22,-3.46 0.81,-0.83 1.83,-1.25 3.09,-1.25 1.54,0 2.57,0.49 3.09,1.45 0.31,0.59 0.47,1.44 0.47,2.56l0 12.36 5.48 0 0 -14.08c0,-2.17 -0.67,-3.85 -2.01,-5.03 -1.35,-1.19 -3.09,-1.78 -5.23,-1.78 -1.33,0 -2.5,0.28 -3.54,0.83 -1.03,0.55 -1.97,1.45 -2.8,2.7l0 -2.99 -5.25 0zm-21.33 20.47c1.28,0.41 2.77,0.61 4.46,0.61 3.65,0 6.49,-0.85 8.51,-2.55 2.02,-1.69 3.03,-4.29 3.03,-7.78l0 -17.87 -5.99 0 0 18.09c0,1.71 -0.46,3.02 -1.37,3.91 -0.91,0.89 -2.34,1.34 -4.3,1.34 -1.46,0 -2.66,-0.47 -3.6,-1.42 -0.94,-0.94 -1.41,-2.31 -1.41,-4.1l0 -17.83 -5.99 0 0 18.21c0,2.81 0.73,5.03 2.19,6.65 1.15,1.28 2.64,2.19 4.46,2.72zm-6.66 62.15l218.81 0 0 -4.59 -218.81 0 0 4.59z"/>
 </g>
</svg>
