<?xml version="1.0" encoding="UTF-8"?>
<!DOCTYPE svg PUBLIC "-//W3C//DTD SVG 1.1//EN" "http://www.w3.org/Graphics/SVG/1.1/DTD/svg11.dtd">
<!-- Creator: CorelDRAW (Versión de evaluación) -->
<svg xmlns="http://www.w3.org/2000/svg" xml:space="preserve" width="92.2983mm" height="13.0009mm" version="1.1" style="shape-rendering:geometricPrecision; text-rendering:geometricPrecision; image-rendering:optimizeQuality; fill-rule:evenodd; clip-rule:evenodd"
viewBox="0 0 10911.08 1536.91"
 xmlns:xlink="http://www.w3.org/1999/xlink"
 xmlns:xodm="http://www.corel.com/coreldraw/odm/2003">
 <defs>
  <style type="text/css">
   <![CDATA[
    .fil0 {fill:white;fill-rule:nonzero}
   ]]>
  </style>
 </defs>
 <g id="Capa_x0020_1">
  <metadata id="CorelCorpID_0Corel-Layer"/>
  <polygon class="fil0" points="1719.83,1294.1 10911.08,1294.1 10911.08,1236.28 1719.83,1236.28 "/>
  <path class="fil0" d="M1526.23 1536.91l10.63 0 0 -10.67 0 -1515.56 0 -10.67 -10.63 0 -1515.6 0 -10.63 0 0 10.67 0 1515.56 0 10.67 10.63 0 1515.6 0zm-481.43 -1005.32l456.32 0 -480.1 960.19 -255.94 -511.92 -7.25 -14.42 -216.9 -433.85 488.6 0 15.26 0zm-1010.35 -493.43l979.86 0 0 461.95 -498.48 0 -25.11 0 11.51 22.98 221.19 442.35c-28.36,13.43 -58.09,25.48 -88.7,34.57 -35.54,10.51 -72.53,17.06 -110.35,17.06 -134.12,0 -255.89,-53.37 -344.55,-137.53 -89.71,-85.21 -145.38,-201.85 -145.38,-326.42l0 -514.96z"/>
  <path class="fil0" d="M1783.29 481.8l132.61 0 0 354.86c0,56.4 1.68,92.83 4.88,109.46 5.64,26.82 18.9,48.47 39.93,64.63 21.2,16.31 50.01,24.39 86.58,24.39 37.05,0 65.09,-7.62 83.99,-23.02 18.9,-15.39 30.19,-34.14 34,-56.55 3.81,-22.4 5.79,-59.45 5.79,-111.28l0 -362.48 132.61 0 0 344.35c0,78.65 -3.5,134.29 -10.66,166.75 -7.16,32.47 -20.27,59.91 -39.48,82.31 -19.06,22.41 -44.66,40.1 -76.67,53.36 -32.17,13.25 -73.93,19.97 -125.6,19.97 -62.35,0 -109.61,-7.16 -141.76,-21.65 -32.17,-14.48 -57.63,-33.23 -76.38,-56.4 -18.75,-23.17 -30.94,-47.26 -36.88,-72.71 -8.69,-37.5 -12.96,-92.99 -12.96,-166.31l0 -349.68zm1091.28 654.85l-125.3 0 0 -241.92c0,-51.21 -2.74,-84.3 -8.09,-99.23 -5.49,-15.1 -14.17,-26.68 -26.36,-35.06 -12.2,-8.38 -26.83,-12.5 -43.91,-12.5 -21.95,0 -41.61,5.93 -58.99,17.83 -17.53,11.89 -29.42,27.75 -35.83,47.26 -6.55,19.66 -9.75,55.94 -9.75,108.98l0 214.63 -125.3 0 0 -474.68 116.15 0 0 69.66c41.62,-53.2 93.91,-79.72 157.17,-79.72 27.75,0 53.2,5.02 76.21,14.94 23.17,10.06 40.55,22.71 52.29,38.1 11.89,15.56 20.12,33.08 24.7,52.75 4.73,19.66 7.01,47.71 7.01,84.3l0 294.65zm126.98 -538.71l0 -116.15 125.31 0 0 116.15 -125.31 0zm0 538.71l0 -474.68 125.31 0 0 474.68 -125.31 0zm384.59 0l-191.3 -474.68 131.7 0 89.32 242.22 25.91 80.94c6.86,-20.58 11.28,-34.15 12.96,-40.7 4.27,-13.42 8.69,-26.83 13.57,-40.24l90.54 -242.22 128.96 0 -188.57 474.68 -113.11 0zm652.58 -149.99l125.3 21.03c-16.01,45.88 -41.46,80.79 -76.06,104.88 -34.76,23.93 -78.2,35.97 -130.18,35.97 -82.47,0 -143.6,-26.99 -183.08,-80.94 -31.24,-43.29 -46.94,-97.87 -46.94,-163.87 0,-78.66 20.58,-140.39 61.58,-184.9 41.01,-44.66 92.99,-66.92 155.8,-66.92 70.42,0 126.05,23.32 166.91,69.97 40.7,46.64 60.22,118.13 58.39,214.47l-313.71 0c0.91,37.2 10.97,66.17 30.33,86.89 19.2,20.73 43.29,31.1 71.95,31.1 19.66,0 36.13,-5.33 49.39,-16.01 13.42,-10.67 23.48,-27.9 30.33,-51.67zm7.32 -127.14c-0.92,-36.42 -10.21,-64.17 -28.05,-83.07 -17.83,-19.06 -39.47,-28.5 -65.09,-28.5 -27.28,0 -49.84,10.06 -67.68,30.03 -17.84,19.97 -26.53,47.25 -26.22,81.54l187.04 0zm346.8 277.13l-125.31 0 0 -474.68 116.16 0 0 67.37c19.97,-31.86 37.96,-52.74 53.97,-62.64 16.01,-9.91 34.14,-14.79 54.41,-14.79 28.66,0 56.25,7.92 82.77,23.63l-38.87 109.44c-21.2,-13.72 -40.86,-20.58 -58.99,-20.58 -17.69,0 -32.63,4.88 -44.82,14.48 -12.2,9.75 -21.8,27.13 -28.82,52.44 -7.01,25.3 -10.51,78.35 -10.51,158.99l0 146.34zm191.3 -133.54l126.22 -19.2c5.34,24.23 16.16,42.68 32.63,55.17 16.3,12.66 39.33,18.9 68.74,18.9 32.47,0 56.86,-5.95 73.33,-17.83 10.97,-8.39 16.46,-19.67 16.46,-33.69 0,-9.46 -3.05,-17.38 -9,-23.63 -6.24,-5.95 -20.27,-11.59 -41.92,-16.61 -101.37,-22.41 -165.54,-42.84 -192.68,-61.28 -37.64,-25.76 -56.4,-61.42 -56.4,-107.01 0,-41.3 16.31,-75.91 48.79,-103.96 32.46,-28.05 82.77,-42.07 150.9,-42.07 64.95,0 113.26,10.67 144.81,31.86 31.56,21.34 53.36,52.74 65.24,94.36l-117.98 21.95c-5.04,-18.61 -14.79,-32.93 -28.96,-42.84 -14.17,-9.91 -34.45,-14.79 -60.82,-14.79 -33.23,0 -57.02,4.57 -71.5,13.88 -9.6,6.55 -14.33,15.08 -14.33,25.45 0,9 4.11,16.62 12.51,22.86 11.43,8.39 50.61,20.13 117.67,35.37 67.08,15.24 113.88,33.85 140.39,55.94 26.37,22.26 39.48,53.5 39.48,93.45 0,43.44 -18.15,80.94 -54.57,112.19 -36.28,31.26 -90.09,46.96 -161.43,46.96 -64.63,0 -115.85,-13.11 -153.66,-39.18 -37.65,-26.07 -62.35,-61.44 -73.93,-106.25zm553.5 -405.17l0 -116.15 125.31 0 0 116.15 -125.31 0zm0 538.71l0 -474.68 125.31 0 0 474.68 -125.31 0zm689.47 0l-116.16 0 0 -69.66c-19.36,27.13 -42.38,47.4 -68.75,61.13 -26.36,13.57 -53.04,20.43 -79.87,20.43 -54.73,0 -101.52,-21.95 -140.55,-66.01 -38.87,-44.05 -58.39,-105.33 -58.39,-184.13 0,-80.49 18.9,-141.76 56.86,-183.68 37.96,-41.92 85.81,-62.81 143.74,-62.81 53.06,0 99.09,22.11 137.8,66.15l0 -236.27 125.31 0 0 654.85zm-334.75 -246.49c0,50.76 7.01,87.5 20.89,110.21 20.27,32.92 48.47,49.39 84.75,49.39 28.81,0 53.35,-12.34 73.47,-37.04 20.27,-24.7 30.33,-61.44 30.33,-110.52 0,-54.72 -9.75,-94.05 -29.41,-118.13 -19.67,-24.09 -44.67,-36.13 -75.3,-36.13 -29.73,0 -54.58,11.88 -74.7,35.67 -19.97,23.78 -30.03,59.3 -30.03,106.55zm551.36 -81.85l-113.42 -20.12c12.81,-46.34 34.91,-80.63 66.17,-102.89 31.24,-22.26 77.74,-33.38 139.32,-33.38 55.95,0 97.72,6.55 125.15,19.81 27.28,13.26 46.65,30.04 57.77,50.45 11.12,20.43 16.76,57.77 16.76,112.35l-1.82 146.34c0,41.61 1.97,72.41 5.95,92.22 3.96,19.81 11.43,41.01 22.4,63.56l-124.39 0c-3.2,-8.23 -7.32,-20.43 -12.05,-36.59 -1.97,-7.47 -3.5,-12.34 -4.42,-14.64 -21.34,21.04 -44.2,36.74 -68.59,47.26 -24.39,10.51 -50.3,15.85 -77.89,15.85 -48.63,0 -87.04,-13.26 -115.09,-39.79 -28.04,-26.37 -42.07,-59.9 -42.07,-100.45 0,-26.68 6.41,-50.61 19.21,-71.65 12.8,-20.88 30.64,-37.04 53.81,-48.17 23.02,-11.12 56.25,-20.88 99.69,-29.26 58.53,-10.98 99.23,-21.35 121.8,-30.8l0 -12.65c0,-24.39 -5.95,-41.77 -17.84,-52.29 -12.05,-10.37 -34.6,-15.55 -67.68,-15.55 -22.41,0 -39.79,4.42 -52.29,13.41 -12.65,8.84 -22.71,24.54 -30.49,46.96zm168.29 101.52c-16.01,5.33 -41.47,11.74 -76.37,19.2 -34.76,7.47 -57.63,14.79 -68.29,21.8 -16.31,11.74 -24.54,26.37 -24.54,44.21 0,17.69 6.55,32.77 19.66,45.57 13.11,12.81 29.73,19.21 50.01,19.21 22.56,0 44.2,-7.47 64.78,-22.26 15.08,-11.43 25.14,-25.14 29.87,-41.61 3.2,-10.66 4.88,-31.09 4.88,-61.13l0 -24.99zm682.46 226.82l-116.16 0 0 -69.66c-19.36,27.13 -42.38,47.4 -68.75,61.13 -26.36,13.57 -53.04,20.43 -79.87,20.43 -54.73,0 -101.52,-21.95 -140.55,-66.01 -38.87,-44.05 -58.39,-105.33 -58.39,-184.13 0,-80.49 18.9,-141.76 56.86,-183.68 37.96,-41.92 85.81,-62.81 143.74,-62.81 53.06,0 99.09,22.11 137.8,66.15l0 -236.27 125.31 0 0 654.85zm-334.75 -246.49c0,50.76 7.01,87.5 20.89,110.21 20.27,32.92 48.47,49.39 84.75,49.39 28.81,0 53.35,-12.34 73.47,-37.04 20.27,-24.7 30.33,-61.44 30.33,-110.52 0,-54.72 -9.75,-94.05 -29.41,-118.13 -19.67,-24.09 -44.67,-36.13 -75.3,-36.13 -29.73,0 -54.58,11.88 -74.7,35.67 -19.97,23.78 -30.03,59.3 -30.03,106.55zm1147.53 246.49l-116.16 0 0 -69.66c-19.36,27.13 -42.38,47.4 -68.75,61.13 -26.36,13.57 -53.04,20.43 -79.87,20.43 -54.73,0 -101.52,-21.95 -140.55,-66.01 -38.87,-44.05 -58.39,-105.33 -58.39,-184.13 0,-80.49 18.9,-141.76 56.86,-183.68 37.96,-41.92 85.81,-62.81 143.74,-62.81 53.06,0 99.09,22.11 137.8,66.15l0 -236.27 125.31 0 0 654.85zm-334.75 -246.49c0,50.76 7.01,87.5 20.89,110.21 20.27,32.92 48.47,49.39 84.75,49.39 28.81,0 53.35,-12.34 73.47,-37.04 20.27,-24.7 30.33,-61.44 30.33,-110.52 0,-54.72 -9.75,-94.05 -29.41,-118.13 -19.67,-24.09 -44.67,-36.13 -75.3,-36.13 -29.73,0 -54.58,11.88 -74.7,35.67 -19.97,23.78 -30.03,59.3 -30.03,106.55zm732.45 96.5l125.3 21.03c-16.01,45.88 -41.46,80.79 -76.06,104.88 -34.76,23.93 -78.2,35.97 -130.18,35.97 -82.47,0 -143.6,-26.99 -183.08,-80.94 -31.24,-43.29 -46.94,-97.87 -46.94,-163.87 0,-78.66 20.58,-140.39 61.58,-184.9 41.01,-44.66 92.99,-66.92 155.8,-66.92 70.42,0 126.05,23.32 166.91,69.97 40.7,46.64 60.22,118.13 58.39,214.47l-313.71 0c0.91,37.2 10.97,66.17 30.33,86.89 19.2,20.73 43.29,31.1 71.95,31.1 19.66,0 36.13,-5.33 49.39,-16.01 13.42,-10.67 23.48,-27.9 30.33,-51.67zm7.32 -127.14c-0.92,-36.42 -10.21,-64.17 -28.05,-83.07 -17.83,-19.06 -39.47,-28.5 -65.09,-28.5 -27.28,0 -49.84,10.06 -67.68,30.03 -17.84,19.97 -26.53,47.25 -26.22,81.54l187.04 0zm226.97 277.13l0 -654.85 125.31 0 0 654.85 -125.31 0zm676.65 0l-234.29 -654.85 143.29 0 166.31 484.74 159.6 -484.74 140.84 0 -232.92 654.85 -142.83 0zm484.43 -328.34l-113.42 -20.12c12.81,-46.34 34.91,-80.63 66.17,-102.89 31.24,-22.26 77.74,-33.38 139.32,-33.38 55.95,0 97.72,6.55 125.15,19.81 27.28,13.26 46.65,30.04 57.77,50.45 11.12,20.43 16.76,57.77 16.76,112.35l-1.82 146.34c0,41.61 1.97,72.41 5.95,92.22 3.96,19.81 11.43,41.01 22.4,63.56l-124.39 0c-3.2,-8.23 -7.32,-20.43 -12.05,-36.59 -1.97,-7.47 -3.5,-12.34 -4.42,-14.64 -21.34,21.04 -44.2,36.74 -68.59,47.26 -24.39,10.51 -50.3,15.85 -77.89,15.85 -48.63,0 -87.04,-13.26 -115.09,-39.79 -28.04,-26.37 -42.07,-59.9 -42.07,-100.45 0,-26.68 6.41,-50.61 19.21,-71.65 12.8,-20.88 30.64,-37.04 53.81,-48.17 23.02,-11.12 56.25,-20.88 99.69,-29.26 58.53,-10.98 99.23,-21.35 121.8,-30.8l0 -12.65c0,-24.39 -5.95,-41.77 -17.84,-52.29 -12.05,-10.37 -34.6,-15.55 -67.68,-15.55 -22.41,0 -39.79,4.42 -52.29,13.41 -12.65,8.84 -22.71,24.54 -30.49,46.96zm168.29 101.52c-16.01,5.33 -41.47,11.74 -76.37,19.2 -34.76,7.47 -57.63,14.79 -68.29,21.8 -16.31,11.74 -24.54,26.37 -24.54,44.21 0,17.69 6.55,32.77 19.66,45.57 13.11,12.81 29.73,19.21 50.01,19.21 22.56,0 44.2,-7.47 64.78,-22.26 15.08,-11.43 25.14,-25.14 29.87,-41.61 3.2,-10.66 4.88,-31.09 4.88,-61.13l0 -24.99zm247.09 226.82l0 -654.85 125.31 0 0 654.85 -125.31 0zm254.1 0l0 -654.85 125.31 0 0 654.85 -125.31 0zm528.49 -149.99l125.3 21.03c-16.01,45.88 -41.46,80.79 -76.06,104.88 -34.76,23.93 -78.2,35.97 -130.18,35.97 -82.47,0 -143.6,-26.99 -183.08,-80.94 -31.24,-43.29 -46.94,-97.87 -46.94,-163.87 0,-78.66 20.58,-140.39 61.58,-184.9 41.01,-44.66 92.99,-66.92 155.8,-66.92 70.42,0 126.05,23.32 166.91,69.97 40.7,46.64 60.22,118.13 58.39,214.47l-313.71 0c0.91,37.2 10.97,66.17 30.33,86.89 19.2,20.73 43.29,31.1 71.95,31.1 19.66,0 36.13,-5.33 49.39,-16.01 13.42,-10.67 23.48,-27.9 30.33,-51.67zm7.32 -127.14c-0.92,-36.42 -10.21,-64.17 -28.05,-83.07 -17.83,-19.06 -39.47,-28.5 -65.09,-28.5 -27.28,0 -49.84,10.06 -67.68,30.03 -17.84,19.97 -26.53,47.25 -26.22,81.54l187.04 0z"/>
 </g>
</svg>
