<?xml version="1.0" encoding="UTF-8"?>
<!DOCTYPE svg PUBLIC "-//W3C//DTD SVG 1.1//EN" "http://www.w3.org/Graphics/SVG/1.1/DTD/svg11.dtd">
<!-- Creator: CorelDRAW (Versión de evaluación) -->
<svg xmlns="http://www.w3.org/2000/svg" xml:space="preserve" width="68.5554mm" height="25.322mm" version="1.1" style="shape-rendering:geometricPrecision; text-rendering:geometricPrecision; image-rendering:optimizeQuality; fill-rule:evenodd; clip-rule:evenodd"
viewBox="0 0 5392.76 1991.9"
 xmlns:xlink="http://www.w3.org/1999/xlink"
 xmlns:xodm="http://www.corel.com/coreldraw/odm/2003">
 <defs>
  <style type="text/css">
   <![CDATA[
    .fil2 {fill:#5B5B5B}
    .fil5 {fill:#5B5B5B;fill-rule:nonzero}
    .fil4 {fill:url(#id0)}
    .fil0 {fill:url(#id1)}
    .fil3 {fill:url(#id2)}
    .fil1 {fill:url(#id3)}
   ]]>
  </style>
  <linearGradient id="id0" gradientUnits="userSpaceOnUse" x1="15.05" y1="497.91" x2="25.67" y2="317.31">
   <stop offset="0" style="stop-opacity:1; stop-color:#352B66"/>
   <stop offset="1" style="stop-opacity:1; stop-color:#834E98"/>
  </linearGradient>
  <linearGradient id="id1" gradientUnits="objectBoundingBox" x1="0%" y1="101.356%" x2="15.8835%" y2="0.682279%">
   <stop offset="0" style="stop-opacity:1; stop-color:#330099"/>
   <stop offset="1" style="stop-opacity:1; stop-color:#9933CC"/>
  </linearGradient>
  <linearGradient id="id2" gradientUnits="objectBoundingBox" xlink:href="#id0" x1="1.98999%" y1="101.56%" x2="13.5284%" y2="0.477111%">
  </linearGradient>
  <linearGradient id="id3" gradientUnits="userSpaceOnUse" xlink:href="#id1" x1="2831.58" y1="1376.19" x2="2997.31" y2="442.2">
  </linearGradient>
 </defs>
 <g id="Capa_x0020_1">
  <metadata id="CorelCorpID_0Corel-Layer"/>
  <g id="_2445172178448">
   <path class="fil0" d="M1791.16 1042.64c-8.95,97.66 -64.57,84.33 -131.26,84.33 -22.91,0 -44.34,-1.35 -59.06,-13 -30.27,-23.95 -31.38,-63.95 -31.38,-112.13 0,-29.77 -1.31,-121.5 0.83,-144.2 4.04,-42.82 20.62,-75.96 61.25,-81.21 20.24,-2.62 48.98,-1.04 70.53,-1.04 22.46,-0.01 43.96,1.38 58.51,12.92 28.5,22.61 31.94,65.52 31.94,111.53 -0.01,44.93 2.63,99.46 -1.35,142.81zm-446.14 428.43c0.01,10.52 -3.63,7.97 20.44,11.72 10.26,1.6 19.05,3.04 29.07,4.58 27.01,4.14 167.4,27.83 174.92,26.54l0.01 -218.97c44.85,3.82 56.16,8.9 109.47,8.85 68.04,-0.06 137.27,-8.17 198.18,-35.8 28.61,-12.98 48.53,-27.33 69.76,-48.54 79.22,-79.2 69.37,-180.18 69.37,-281.53 0,-19.5 0,-38.99 0,-58.49 0,-9.2 -3.17,-53.79 -2.41,-56.43 -0.21,-0.35 -0.46,-1.31 -0.54,-1.11l-10.39 -43.38c-31.94,-101.29 -105.46,-151.23 -215.3,-171.1 -96.44,-17.45 -239.33,-12.68 -328.17,40.26 -13.22,7.87 -22.13,14.86 -32.59,23.21 -41.52,33.12 -67.39,89.05 -76.66,143.57 -7.89,46.44 -5.15,161.25 -5.15,214.6 0,147.34 0.17,294.69 -0.01,442.03z"/>
   <path class="fil0" d="M3624.51 934.55c0.27,-27.34 -2.6,-54.3 9.31,-76.42 22.37,-41.56 88.68,-31.06 136.93,-31.06 25.72,0 52.07,0.57 70.99,12.63 6.75,4.3 17.35,16.95 11.12,29.3 -3.35,6.64 -16.02,13.74 -24.21,17.96 -32.54,16.74 -169.36,46.05 -204.12,47.59zm405 360.57c5.25,-9.63 21.69,-17.63 40.61,-59.23 10.55,-23.21 15.87,-54.84 15.44,-83.14l-231.16 -35.98c0.01,80.12 -65.05,72.09 -116.3,72.09 -28.02,0 -64.58,2.15 -88.1,-6.37 -11.82,-4.29 -22.12,-10.74 -24.73,-23.08 -3.17,-14.99 9.55,-21.8 18.93,-27.06 67.95,-38.1 225.13,-44.48 301.08,-74.3 46.62,-18.3 86.17,-45.03 108.24,-79.44 39.65,-61.82 45.55,-157.84 3.93,-222.63 -25.2,-39.21 -63.11,-64.3 -107.18,-80.54 -22.14,-8.17 -41.35,-13.29 -63.82,-17.8l-5.59 -1.42c-0.31,-0.11 -0.78,-0.36 -1.02,-0.46l-2.03 -1.06c-5.17,1.09 -43.57,-5.06 -53.23,-6.07 -18.64,-1.97 -36.82,-2.37 -56.56,-3.18 -121.16,-5 -299.37,10.78 -356.11,128.14 -15.21,31.47 -18.6,63.29 -18.6,101.78 0,80.7 0,161.39 0,242.09 0,42.16 -1.08,71.42 11.86,108.44 31.97,91.42 129.69,125.93 224.35,138.65 94.58,12.71 233.03,10.12 323.67,-25.16 14.3,-5.56 28.17,-11.66 40.51,-19.37l35.81 -24.9z"/>
   <path class="fil0" d="M1041.69 1022.21c0.24,24.96 2.15,54.08 -8.64,73.64 -22.48,40.83 -82.85,31.11 -132.08,31.12 -23.01,0 -51.93,-0.51 -69.49,-12.14 -20.66,-13.7 -17.53,-33.09 11.59,-45.79 18.97,-8.28 39.79,-14.97 61.29,-20.33 29.82,-7.44 108.36,-23.86 137.34,-26.51zm-166.56 -421.6c-61.28,0.38 -151.99,21.47 -194.26,49.22 -26.28,17.25 -45.73,33.71 -61.7,60.77 -14.46,24.51 -27.93,65.04 -24.57,99.48 4.77,2.48 202.43,33.02 224.08,35.96 -0.02,-8.38 0.67,-24.96 4.91,-30.53 3.31,-17.58 21.7,-31.51 39.68,-36.34 20.26,-5.43 48.14,-3.77 70.34,-3.77 28.02,0 74.7,-2.78 97.09,13.75 3.63,2.67 6.61,6.17 8.52,10.57 1.14,2.62 1.89,5.11 1.95,7.7l-1.82 7.37c-2.67,25.97 -135.79,50.84 -160.06,55.32 -80.02,14.8 -140.74,17.96 -206.54,62.62 -30.87,20.96 -57.77,53.14 -69.53,93.68 -17.13,59.06 -9.89,131.19 22.6,175.75 29.46,40.41 71.75,65.95 133.59,82.64 98.56,26.6 285.84,27.48 382.28,-13.67 14.16,-6.04 23.79,-10.95 36.26,-18.13 16.58,-9.55 18.34,-12.64 31.5,-22.91 11.96,-9.35 28.35,-30.92 35.66,-45.94 2.06,-4.25 6.51,-14.82 8.45,-17.73 4.73,-18.63 8.99,-30.72 11.1,-50.86 2.61,-25.04 0.83,-258.61 0.83,-301.4 0,-36.74 -5.86,-71.89 -22.01,-99.08 -17.31,-29.14 -32.99,-43.52 -59.19,-61.78 -70.86,-49.41 -226.83,-61.45 -309.14,-52.67z"/>
   <path class="fil0" d="M262.38 494.56l0.02 808.55c13.62,3.55 92.48,15.1 112.22,18.14 19.07,2.95 37.47,5.94 56.77,8.95 9.8,1.53 47.58,8.77 55.09,7.94l0.34 -844.28 259.82 -0.02 0.64 -176.83 -745.15 0.02 -0.13 176.16c43.42,-0.44 87.08,-0.03 130.53,-0.03 5.84,0 123.59,-1.88 129.86,1.39z"/>
   <path class="fil1" d="M3111.1 1091.82l-1.41 -8.34c0.09,-40.05 -1.38,-247.2 0.73,-257.08l230.54 -0.05 0.08 -180.86 -230.73 -0.64c-1.71,-9.2 -0.85,-175.17 -0.58,-204.74 0.11,-11.48 1.25,-10.28 -1.95,-12.4l-228.65 35.82 0.06 513.81c0,104.74 -10.53,203.19 54.29,287.82 90.58,118.25 268.66,105.79 406.8,105.95l0.66 -182.35 -163.26 -0.21c-47.53,-4.41 -66.44,-47.11 -66.6,-96.74z"/>
   <path class="fil0" d="M2198.12 812.41c1.36,0.73 87.83,123.56 91.15,130.95 -3.31,7.4 -10.86,16.8 -15.43,23.68l-148.01 217.85c-10.5,15.87 -22.01,33.2 -33,48.65 -11.81,16.59 -21.4,32.75 -32.9,48.68l-32.86 48.82 220.74 -0.05c1.49,-3.35 16.87,-28.27 20.07,-29.92 3,-7.35 58.98,-90.48 64.46,-98.72 8.21,-12.37 60.34,-92.92 64.72,-96.81 3.32,2.93 12.74,18.02 15.89,23.24l48.31 72.73c8.78,13.56 61.22,90.88 63.31,97.84 2.98,1.53 19.88,27.41 21.77,31.67l220.31 -0.03 -97.86 -145.23c-10.86,-16.39 -21.77,-32.98 -33.01,-48.63l-57.2 -84.21c-2.48,-3.68 -5.25,-8.53 -8.07,-12.33 -6.03,-8.15 -11.1,-16.07 -16.68,-24.15l-32.82 -48.77c-5.58,-7.75 -12.25,-16.86 -16.17,-24.3l27.99 -41.05c21.13,-31 52.51,-73.97 71.73,-103.68 19.16,-29.59 126.18,-179.27 127.77,-187.47 -9.06,3.26 -187.48,1.01 -213.54,1.01l-121.72 174.95 -60.37 -86.72c-9.55,-14.51 -20.39,-29.46 -29.99,-43.45l-30.32 -44.75 -214.26 -0.03c2.07,5.62 27.25,41.03 33.74,50.23l85.51 124c4,5.7 15.49,20.7 16.76,26z"/>
   <path class="fil0" d="M4417.43 650.27c-2.85,2.6 -36.45,7.59 -48.85,10.94 -116.69,31.54 -183.98,101.35 -198.66,225.34 -5.4,45.69 -2.7,347.53 -2.7,422.68 0,18.97 -1.42,44.37 0.53,62.55 17.21,-4.85 224.02,3.94 229.66,-1.7 3.88,-6.84 1.04,-344.82 1.04,-384.56 0,-60.74 -3.81,-129.68 42.43,-151.37 24.05,-11.28 61.06,-7.07 90.16,-7.07 32.42,0 64.83,0 97.26,0l0.66 -182.27c-51.45,0 -110.2,-1.16 -160.51,1.4 -13.22,0.66 -41,5.33 -51.01,4.06z"/>
   <path class="fil2" d="M1717.01 1711.8c5.43,28.48 32.49,42.14 57.97,60.42 175.85,126.16 391.1,212.27 616.65,212.27 150.25,0 269.11,-26.98 396.56,-77.43 56.79,-22.47 108.85,-50.49 157.64,-79.05 17.72,-10.38 92.14,-59.3 103.97,-74.16 41.45,-52.09 -25.12,-121 -78.07,-75.38 -27.9,24.03 -91.43,63.88 -125.22,81.53 -25.08,13.11 -51.53,26.53 -79.61,38.67 -112.09,48.44 -257.12,84.38 -395.65,77.59 -142.25,-6.99 -261.62,-40.95 -375.71,-97.56 -49.66,-24.64 -123.06,-67.87 -165.94,-100.59 -16.29,-12.44 -36.54,-30.1 -58.11,-30.32 -33.72,-0.35 -61.25,28.39 -54.47,63.99z"/>
   <path class="fil2" d="M2366.81 1.49c-44.38,4.53 -58.6,2.01 -110.58,10.65 -108.44,18.02 -178.92,44.18 -276.12,89.95 -43.12,20.3 -115.09,65.84 -150.04,93.36 -16.97,13.36 -51.04,39.32 -66.85,55.58 -8.1,8.33 -23.14,20.24 -28.33,32.82 -20.37,49.49 40.06,98.46 85.5,52.91 26.98,-27.04 67.19,-58.99 100.69,-81.61 158.84,-107.26 322.56,-158.35 519.58,-152.34 138.53,4.23 261.6,47.29 382.8,104.08 30.46,14.27 86.95,46.32 116.59,65.64l73.35 49.02c52.78,37.14 105.51,-20.68 74.87,-67.95 -7.17,-11.06 -21.85,-18.58 -33.05,-26.86 -73.87,-54.61 -190.1,-116.07 -276.36,-150.72 -91.82,-36.88 -193.01,-62.86 -293.67,-71.83 -33.4,-2.97 -84.73,-6.13 -118.38,-2.7z"/>
   <path class="fil2" d="M2740.49 1408.87c-6.88,4.18 -16.24,15.89 -23.12,22.1 -3.29,2.96 -4.85,3.54 -8.17,6.77 -10.19,9.95 -21.63,18.56 -32.76,27.11 -73.95,56.87 -156.3,93.4 -256.42,99.9 -33.43,2.17 -77.59,-4.26 -106.93,-12.37 -39.53,-10.93 -89.42,-32.62 -122.78,-55.44 -6.08,-4.17 -11.3,-7.61 -17.92,-12.06 -5.89,-3.97 -11.1,-8.09 -16.62,-11.92 -20.43,-14.14 -49.75,-44.17 -66.78,-51.88 -25.87,-8.87 -51.03,-0.09 -65.31,22.08 -15.06,23.38 -5.79,56.51 9.82,69.13l24.74 21.51c29.94,24.68 47.82,38.3 82.75,60.07 161.6,100.69 344.75,104.65 514.51,13.22 10.41,-5.6 20.52,-10.98 30.4,-17.23 41.01,-25.93 58.69,-39.96 94.62,-69.93 4.57,-3.81 7.98,-8.35 12.44,-12 5.25,-4.28 7.43,-6.3 12.12,-11l11.28 -13.22c15.45,-22.56 10.51,-52.15 -6.49,-69.12 -16.69,-16.68 -47.89,-22.34 -69.39,-5.72z"/>
   <path class="fil2" d="M2107.4 538.53c7.39,-9.67 48.18,-36.47 63,-44.92 28.68,-16.37 35.63,-21.65 69.6,-36.53 113.32,-49.65 234.06,-62.88 349.49,-12.22 25.23,11.08 46.79,22.76 68.93,37.18 7.51,4.89 55.46,37.81 59.98,46.98 9.95,2.46 28.59,38.07 66.86,27.3 40.4,-11.37 49.68,-59.19 19.16,-88.34 -21.74,-20.77 -58.04,-48.87 -80.89,-64.68 -136.62,-94.49 -294.3,-115.72 -460.08,-64.11 -68.8,21.42 -133.55,57.36 -191.92,97.76 -14.69,10.17 -43.45,31.17 -51.48,45.11 -27.56,47.8 30.08,97.75 73.46,66.67 2.79,-2 4.41,-3.59 6.74,-5.55 4.77,-4.02 3.52,-3.89 7.13,-4.64z"/>
   <path class="fil3" d="M3111.1 1091.82l0.02 -264.06 201.29 -0.01c4.99,0 9.97,-0.02 14.96,0l10.78 -0.09c2.97,-0.61 1.18,-0.02 2.82,-1.31l-230.54 0.05c-2.12,9.88 -0.65,217.03 -0.73,257.08l1.41 8.34z"/>
   <path class="fil4" d="M262.38 494.56c-6.27,-3.27 -124.03,-1.39 -129.86,-1.39 -43.45,0 -87.1,-0.41 -130.53,0.03l0.13 -176.16c-2.57,4.54 -1.53,13.14 -1.53,21.07 0,29.73 -1.68,144.52 0.65,155.75l261.14 0.69z"/>
   <path class="fil3" d="M3341.04 645.5c-0.29,-0.18 -0.7,-0.82 -0.86,-0.53l-4.55 -0.94c-1.9,-0.09 -4.87,0.09 -6.91,0.09l-102.01 0c-38.19,0 -77.56,0.94 -115.6,-0.09l-0.03 -216.83 -3.3 0.53c3.2,2.12 2.06,0.92 1.95,12.4 -0.27,29.57 -1.12,195.54 0.58,204.74l230.73 0.64z"/>
   <path class="fil5" d="M3334.94 1663.54c9.55,0 18.59,1.82 27.12,5.45 8.52,3.64 15.91,8.64 22.16,15.01 6.25,6.36 11.19,13.75 14.84,22.16 3.63,8.41 5.45,17.5 5.45,27.28 0,22.05 -8.07,39.55 -24.2,52.51 8.64,6.36 15.69,14.55 21.14,24.55 5.46,10.01 8.18,20.8 8.18,32.39 0,9.55 -1.82,18.59 -5.45,27.11 -3.63,8.53 -8.58,15.91 -14.84,22.17 -6.25,6.25 -13.64,11.19 -22.16,14.83 -8.53,3.64 -17.57,5.46 -27.11,5.46l-90.02 0 0 -248.91 84.9 0zm5.12 139.12c-0.46,0 -0.86,0.06 -1.2,0.17 -0.34,0.11 -0.74,0.17 -1.2,0.17l-57.97 0 0 79.79 60.36 0c5.45,0 10.63,-1.02 15.51,-3.07 4.88,-2.05 9.09,-4.89 12.62,-8.53 3.52,-3.63 6.36,-7.9 8.52,-12.78 2.16,-4.89 3.24,-10.06 3.24,-15.52 0,-5.45 -1.08,-10.63 -3.24,-15.51 -2.16,-4.88 -5,-9.15 -8.52,-12.79 -3.52,-3.63 -7.73,-6.53 -12.62,-8.69 -4.88,-2.16 -10.06,-3.24 -15.51,-3.24zm-5.12 -29.66c5.46,0 10.57,-1.02 15.35,-3.07 4.77,-2.05 8.98,-4.88 12.62,-8.53 3.63,-3.63 6.47,-7.84 8.53,-12.62 2.05,-4.77 3.07,-9.89 3.07,-15.34 0,-5.46 -1.02,-10.63 -3.07,-15.51 -2.05,-4.89 -4.89,-9.16 -8.53,-12.79 -3.63,-3.63 -7.84,-6.48 -12.62,-8.53 -4.77,-2.05 -9.89,-3.07 -15.35,-3.07l-55.24 0 0 79.45 55.24 0zm179.71 142.53c-9.32,0 -18.13,-1.82 -26.43,-5.45 -8.29,-3.64 -15.51,-8.53 -21.65,-14.66 -6.14,-6.14 -11.03,-13.36 -14.66,-21.66 -3.63,-8.3 -5.46,-17.1 -5.46,-26.42l0 -105.71 29.33 0 0 105.71c0,5.45 1.02,10.56 3.07,15.34 2.05,4.77 4.83,8.93 8.35,12.45 3.52,3.52 7.61,6.3 12.28,8.35 4.66,2.05 9.71,3.07 15.17,3.07 5.45,0 10.57,-1.02 15.34,-3.07 4.77,-2.05 8.93,-4.84 12.45,-8.35 3.52,-3.52 6.3,-7.68 8.35,-12.45 2.05,-4.77 3.07,-9.89 3.07,-15.34l0 -105.71 28.98 0 0 182.08c0,9.55 -1.93,18.47 -5.8,26.77 -3.86,8.3 -9.15,15.51 -15.85,21.66 -6.71,6.14 -14.61,10.97 -23.7,14.49 -9.09,3.52 -18.87,5.29 -29.33,5.29l0 -28.99c6.36,0 12.33,-1.02 17.9,-3.07 5.57,-2.05 10.4,-4.88 14.49,-8.52 4.09,-3.64 7.33,-7.79 9.72,-12.45 2.38,-4.66 3.58,-9.71 3.58,-15.17l0 -20.45c-5.69,3.86 -11.82,6.88 -18.41,9.03 -6.59,2.16 -13.53,3.24 -20.8,3.24zm177.64 -251.3l29.67 0 0 181.74c0,5.46 1.08,10.63 3.23,15.52 2.16,4.88 5,9.15 8.53,12.78 3.52,3.64 7.73,6.48 12.62,8.53 4.88,2.05 10.06,3.07 15.51,3.07 5.46,0 10.63,-1.02 15.51,-3.07 4.89,-2.05 9.16,-4.88 12.79,-8.53 3.63,-3.63 6.54,-7.9 8.69,-12.78 2.16,-4.89 3.24,-10.06 3.24,-15.52l0 -181.74 29.66 0 0 181.74c0,5.46 1.02,10.63 3.07,15.52 2.05,4.88 4.89,9.15 8.53,12.78 3.63,3.64 7.9,6.48 12.79,8.53 4.88,2.05 10.05,3.07 15.51,3.07 5.45,0 10.63,-1.02 15.51,-3.07 4.88,-2.05 9.09,-4.88 12.62,-8.53 3.52,-3.63 6.36,-7.9 8.53,-12.78 2.16,-4.89 3.23,-10.06 3.23,-15.52l0 -181.74 29.67 0 0 181.74c0,9.78 -1.82,18.87 -5.46,27.28 -3.63,8.41 -8.64,15.74 -15,21.99 -6.36,6.25 -13.75,11.19 -22.17,14.84 -8.41,3.63 -17.38,5.45 -26.93,5.45 -11.14,0 -21.48,-2.38 -31.03,-7.16 -9.54,-4.77 -17.5,-11.14 -23.87,-19.1 -6.36,7.96 -14.32,14.32 -23.87,19.1 -9.55,4.77 -19.89,7.16 -31.03,7.16 -9.55,0 -18.53,-1.82 -26.93,-5.45 -8.42,-3.64 -15.8,-8.58 -22.17,-14.84 -6.36,-6.25 -11.37,-13.59 -15,-21.99 -3.63,-8.41 -5.46,-17.5 -5.46,-27.28l0 -181.74zm434.08 149.01c-1.82,-6.36 -4.49,-12.33 -8.02,-17.9 -3.52,-5.57 -7.79,-10.34 -12.79,-14.32 -5,-3.98 -10.63,-7.1 -16.87,-9.38 -6.25,-2.27 -12.9,-3.41 -19.95,-3.41 -7.05,0 -13.7,1.14 -19.95,3.41 -6.25,2.27 -11.88,5.4 -16.88,9.38 -5,3.97 -9.31,8.75 -12.96,14.32 -3.63,5.57 -6.25,11.54 -7.84,17.9l115.26 0zm-57.63 103.32c-12.28,0 -23.81,-2.33 -34.61,-6.99 -10.79,-4.66 -20.23,-11.03 -28.3,-19.1 -8.06,-8.07 -14.43,-17.45 -19.09,-28.13 -4.66,-10.68 -6.99,-22.17 -6.99,-34.44 0,-12.28 2.34,-23.87 6.99,-34.78 4.66,-10.92 11.03,-20.35 19.09,-28.3 8.07,-7.96 17.51,-14.27 28.3,-18.93 10.8,-4.66 22.33,-6.99 34.61,-6.99 12.27,0 23.81,2.34 34.61,6.99 10.79,4.66 20.17,10.97 28.13,18.93 7.95,7.95 14.26,17.38 18.93,28.3 4.66,10.91 6.99,22.5 6.99,34.78 0,1.59 0,3.3 0,5.11 0,1.82 -0.23,4.88 -0.68,9.21l-145.6 0c1.6,6.59 4.21,12.61 7.84,18.07 3.64,5.45 7.96,10.23 12.96,14.32 5,4.1 10.63,7.28 16.88,9.55 6.25,2.27 12.9,3.41 19.95,3.41 5.45,0 10.91,-1.42 16.37,-4.26 5.45,-2.84 10.68,-6.65 15.69,-11.42l20.45 20.46c-7.5,7.27 -15.74,13.12 -24.72,17.56 -8.98,4.43 -18.24,6.65 -27.79,6.65zm210.38 -177.99c12.27,0 23.87,2.33 34.78,6.99 10.91,4.66 20.41,10.97 28.47,18.92 8.07,7.96 14.43,17.39 19.1,28.3 4.66,10.91 6.99,22.51 6.99,34.78 0,12.27 -2.33,23.75 -6.99,34.44 -4.66,10.68 -11.03,20.06 -19.1,28.13 -8.06,8.07 -17.56,14.43 -28.47,19.09 -10.91,4.66 -22.51,6.99 -34.78,6.99 -12.28,0 -23.76,-2.33 -34.44,-6.99 -10.69,-4.66 -20.07,-11.02 -28.14,-19.09 -8.06,-8.07 -14.43,-17.45 -19.09,-28.13 -4.66,-10.69 -6.99,-22.17 -6.99,-34.44l0 -164.36 28.99 0 0 98.55c7.95,-7.05 17.05,-12.67 27.28,-16.88 10.23,-4.21 21.03,-6.31 32.39,-6.31zm0 29.33c-8.19,0 -15.91,1.53 -23.19,4.6 -7.28,3.07 -13.59,7.33 -18.93,12.79 -5.34,5.45 -9.6,11.82 -12.78,19.09 -3.19,7.28 -4.77,15 -4.77,23.19 0,8.18 1.59,15.91 4.77,23.18 3.18,7.28 7.44,13.59 12.78,18.93 5.34,5.34 11.65,9.6 18.93,12.78 7.28,3.19 15,4.77 23.19,4.77 8.41,0 16.25,-1.59 23.53,-4.77 7.27,-3.18 13.58,-7.44 18.92,-12.78 5.34,-5.34 9.55,-11.65 12.62,-18.93 3.07,-7.28 4.6,-15 4.6,-23.18 0,-8.19 -1.53,-15.91 -4.6,-23.19 -3.07,-7.28 -7.28,-13.64 -12.62,-19.09 -5.34,-5.46 -11.65,-9.72 -18.92,-12.79 -7.28,-3.07 -15.12,-4.6 -23.53,-4.6zm204.59 146.96c-12.28,0 -23.76,-2.33 -34.44,-6.99 -10.68,-4.66 -20.06,-10.97 -28.13,-18.93 -8.07,-7.95 -14.43,-17.33 -19.1,-28.13 -4.66,-10.8 -6.99,-22.33 -6.99,-34.61 0,-12.27 2.33,-23.81 6.99,-34.61 4.66,-10.79 11.03,-20.22 19.1,-28.3 8.07,-8.07 17.45,-14.43 28.13,-19.1 10.68,-4.66 22.16,-6.99 34.44,-6.99 9.55,0 18.86,2.21 27.96,6.65 9.09,4.43 17.39,10.4 24.9,17.9l-20.46 20.45c-5,-4.77 -10.23,-8.57 -15.69,-11.42 -5.46,-2.84 -11.03,-4.26 -16.71,-4.26 -8.18,0 -15.91,1.54 -23.19,4.61 -7.27,3.07 -13.58,7.33 -18.92,12.78 -5.35,5.46 -9.6,11.82 -12.79,19.1 -3.19,7.27 -4.77,15 -4.77,23.18 0,8.19 1.59,15.91 4.77,23.19 3.19,7.28 7.44,13.58 12.79,18.93 5.34,5.34 11.65,9.6 18.92,12.78 7.28,3.19 15.01,4.77 23.19,4.77 5.68,0 11.25,-1.36 16.71,-4.09 5.45,-2.73 10.68,-6.59 15.69,-11.59l20.46 20.46c-7.5,7.5 -15.8,13.41 -24.9,17.73 -9.09,4.32 -18.41,6.47 -27.96,6.47zm76.72 -251.98l28.98 0 0 205.27c0,5.23 2.45,9.66 7.33,13.29 4.88,3.64 10.75,5.46 17.56,5.46l0 28.98c-7.5,0 -14.49,-1.24 -20.96,-3.74 -6.48,-2.5 -12.16,-5.92 -17.05,-10.23 -4.88,-4.32 -8.75,-9.38 -11.59,-15.17 -2.84,-5.8 -4.26,-11.99 -4.26,-18.58l0 -205.27zm150.03 75.36c12.28,0 23.81,2.33 34.61,6.99 10.8,4.66 20.23,10.97 28.3,18.93 8.07,7.95 14.43,17.39 19.09,28.3 4.66,10.91 6.99,22.51 6.99,34.78 0,12.28 -2.33,23.81 -6.99,34.61 -4.66,10.8 -11.02,20.18 -19.09,28.13 -8.07,7.96 -17.5,14.26 -28.3,18.93 -10.8,4.66 -22.33,6.99 -34.61,6.99 -12.27,0 -23.76,-2.33 -34.44,-6.99 -10.68,-4.66 -20.06,-10.97 -28.13,-18.93 -8.07,-7.95 -14.43,-17.33 -19.09,-28.13 -4.66,-10.8 -6.99,-22.33 -6.99,-34.61 0,-12.27 2.33,-23.87 6.99,-34.78 4.66,-10.91 11.02,-20.35 19.09,-28.3 8.07,-7.95 17.45,-14.26 28.13,-18.93 10.68,-4.66 22.17,-6.99 34.44,-6.99zm0 29.33c-8.18,0 -15.91,1.53 -23.18,4.6 -7.28,3.07 -13.64,7.33 -19.1,12.78 -5.45,5.46 -9.71,11.82 -12.78,19.1 -3.07,7.27 -4.61,15 -4.61,23.18 0,8.19 1.54,15.91 4.61,23.19 3.07,7.28 7.33,13.59 12.78,18.93 5.46,5.34 11.82,9.6 19.1,12.78 7.27,3.19 15,4.77 23.18,4.77 8.19,0 15.91,-1.59 23.19,-4.77 7.28,-3.18 13.64,-7.44 19.09,-12.78 5.46,-5.34 9.72,-11.65 12.79,-18.93 3.07,-7.28 4.6,-15 4.6,-23.19 0,-8.18 -1.53,-15.91 -4.6,-23.18 -3.07,-7.28 -7.33,-13.64 -12.79,-19.1 -5.45,-5.45 -11.82,-9.71 -19.09,-12.78 -7.28,-3.07 -15,-4.6 -23.19,-4.6zm162.65 72.28c-6.36,0 -12.33,-1.13 -17.9,-3.41 -5.57,-2.27 -10.51,-5.4 -14.83,-9.38 -4.32,-3.98 -7.79,-8.7 -10.4,-14.15 -2.62,-5.46 -4.04,-11.37 -4.26,-17.73 -0.23,-1.37 -0.35,-3.13 -0.35,-5.29 0,-2.16 0.12,-3.93 0.35,-5.29 0.23,-6.14 1.64,-11.93 4.26,-17.39 2.61,-5.45 6.08,-10.23 10.4,-14.32 4.32,-4.1 9.26,-7.28 14.83,-9.55 5.57,-2.27 11.54,-3.41 17.9,-3.41l65.47 0 0 29.33 -65.47 0c-4.77,0 -8.92,1.65 -12.44,4.95 -3.52,3.3 -5.51,7.44 -5.97,12.44 -0.46,2.27 -0.46,4.66 0,7.16 0.46,4.77 2.45,8.81 5.97,12.11 3.52,3.3 7.67,4.95 12.44,4.95l23.53 0c6.36,0 12.39,1.19 18.07,3.58 5.69,2.38 10.63,5.62 14.84,9.71 4.2,4.09 7.61,8.87 10.23,14.32 2.62,5.45 4.04,11.37 4.26,17.73l0 9.54c0,6.6 -1.31,12.68 -3.92,18.25 -2.62,5.57 -6.03,10.51 -10.23,14.83 -4.2,4.32 -9.2,7.67 -15,10.06 -5.8,2.38 -11.99,3.58 -18.58,3.58l-67.18 0 0 -28.98 67.18 0c4.54,0 8.46,-1.48 11.76,-4.44 3.3,-2.96 5.51,-6.48 6.65,-10.57l0 -1.36c0,-0.46 0.06,-0.86 0.17,-1.2 0.11,-0.34 0.17,-0.74 0.17,-1.2l0 -6.47c-0.23,-5.23 -2.11,-9.6 -5.63,-13.13 -3.52,-3.52 -7.9,-5.29 -13.12,-5.29l-23.19 0zm104.34 -138.78l29.33 0 0 41.6 59.67 0 0 28.99 -59.67 0 0 95.81c0,5 1.76,9.27 5.29,12.79 3.52,3.52 7.9,5.29 13.13,5.29 5.23,0 9.6,-2.39 13.13,-7.17 3.52,-4.77 5.29,-10.56 5.29,-17.38l28.98 0c0,7.5 -1.25,14.49 -3.75,20.96 -2.49,6.48 -5.85,12.16 -10.05,17.05 -4.21,4.88 -9.21,8.75 -15.01,11.59 -5.8,2.84 -11.99,4.26 -18.58,4.26 -6.59,0 -12.79,-1.25 -18.58,-3.74 -5.8,-2.5 -10.86,-5.92 -15.17,-10.23 -4.32,-4.32 -7.73,-9.32 -10.23,-15 -2.5,-5.69 -3.75,-11.82 -3.75,-18.41l0 -166.4zm256.09 112.18c-1.82,-6.36 -4.49,-12.33 -8.02,-17.9 -3.52,-5.57 -7.79,-10.34 -12.79,-14.32 -5,-3.98 -10.63,-7.1 -16.87,-9.38 -6.25,-2.27 -12.9,-3.41 -19.95,-3.41 -7.05,0 -13.7,1.14 -19.95,3.41 -6.25,2.27 -11.88,5.4 -16.88,9.38 -5,3.97 -9.31,8.75 -12.96,14.32 -3.63,5.57 -6.25,11.54 -7.84,17.9l115.26 0zm-57.63 103.32c-12.28,0 -23.81,-2.33 -34.61,-6.99 -10.79,-4.66 -20.23,-11.03 -28.3,-19.1 -8.06,-8.07 -14.43,-17.45 -19.09,-28.13 -4.66,-10.68 -6.99,-22.17 -6.99,-34.44 0,-12.28 2.34,-23.87 6.99,-34.78 4.66,-10.92 11.03,-20.35 19.09,-28.3 8.07,-7.96 17.51,-14.27 28.3,-18.93 10.8,-4.66 22.33,-6.99 34.61,-6.99 12.27,0 23.81,2.34 34.61,6.99 10.79,4.66 20.17,10.97 28.13,18.93 7.95,7.95 14.26,17.38 18.93,28.3 4.66,10.91 6.99,22.5 6.99,34.78 0,1.59 0,3.3 0,5.11 0,1.82 -0.23,4.88 -0.68,9.21l-145.6 0c1.6,6.59 4.21,12.61 7.84,18.07 3.64,5.45 7.96,10.23 12.96,14.32 5,4.1 10.63,7.28 16.88,9.55 6.25,2.27 12.9,3.41 19.95,3.41 5.45,0 10.91,-1.42 16.37,-4.26 5.45,-2.84 10.68,-6.65 15.69,-11.42l20.45 20.46c-7.5,7.27 -15.74,13.12 -24.72,17.56 -8.98,4.43 -18.24,6.65 -27.79,6.65zm151.05 -4.09l-29.33 0 0 -85.25c0,-12.27 2.5,-23.87 7.5,-34.78 5,-10.91 11.82,-20.35 20.46,-28.3 8.64,-7.95 18.7,-14.26 30.18,-18.93 11.48,-4.66 23.81,-6.99 37,-6.99l0 29.33c-9.09,0 -17.61,1.53 -25.57,4.6 -7.95,3.07 -14.95,7.33 -20.97,12.78 -6.03,5.46 -10.74,11.82 -14.15,19.1 -3.41,7.27 -5.11,15 -5.11,23.18l0 85.25z"/>
  </g>
 </g>
</svg>
